<svg width="59" height="59" viewBox="0 0 59 59" fill="none" xmlns="http://www.w3.org/2000/svg">
<path d="M52.0526 19.4583C51.375 18.7837 50.4561 18.4046 49.498 18.4046C48.5399 18.4046 47.621 18.7837 46.9434 19.4583L29.0575 37.2723L11.1716 19.4583C10.4902 18.8028 9.57744 18.44 8.63004 18.4482C7.68265 18.4564 6.77638 18.8349 6.10645 19.5022C5.43651 20.1694 5.0565 21.072 5.04827 22.0156C5.04004 22.9592 5.40424 23.8683 6.06243 24.547L26.5029 44.9053C27.1805 45.58 28.0994 45.959 29.0575 45.959C30.0156 45.959 30.9345 45.58 31.6121 44.9053L52.0526 24.547C52.73 23.8721 53.1105 22.9569 53.1105 22.0027C53.1105 21.0484 52.73 20.1332 52.0526 19.4583Z" fill="#0D65BD"/>
</svg>
